<svg version="1.1" id="Layer_1" xmlns="http://www.w3.org/2000/svg" xmlns:xlink="http://www.w3.org/1999/xlink" x="0px" y="0px"
	 width="100%" viewBox="0 0 522 478" enable-background="new 0 0 522 478" xml:space="preserve">
<path fill="#000000" opacity="1.000000" stroke="none" 
	d="
M356.000000,479.000000 
	C237.333359,479.000000 119.166725,479.000000 1.000063,479.000000 
	C1.000042,319.666748 1.000042,160.333466 1.000021,1.000149 
	C174.999893,1.000099 348.999786,1.000099 522.999756,1.000050 
	C522.999878,160.333191 522.999878,319.666382 522.999939,478.999786 
	C467.500000,479.000000 412.000000,479.000000 356.000000,479.000000 
M450.878143,164.369461 
	C450.916351,156.573517 451.025574,148.776855 450.949371,140.982040 
	C450.926575,138.647705 450.386017,136.318436 450.051300,133.065308 
	C449.363464,125.821014 448.556854,118.585640 448.012360,111.330582 
	C446.860107,95.977974 442.802643,81.467819 434.881805,68.268639 
	C428.346619,57.378414 418.779877,50.775265 405.611267,51.074722 
	C395.963074,51.294128 387.152740,54.208488 378.469238,58.814911 
	C366.915039,64.944176 354.490173,69.409126 342.592102,74.918968 
	C327.630249,81.847633 311.726898,84.722656 295.531036,84.751801 
	C285.075165,84.770630 274.435913,83.138130 264.199219,80.826843 
	C249.505722,77.509254 235.107544,72.886497 220.576645,68.844841 
	C213.458191,66.864891 206.427780,64.219002 199.170624,63.180130 
	C191.044739,62.016895 182.709869,62.169022 174.461395,62.041084 
	C162.528183,61.855991 153.499649,68.801674 147.574249,77.467178 
	C138.042648,91.406540 138.190674,107.869011 143.042938,123.545731 
	C146.694077,135.341736 152.602966,146.429092 157.326767,157.906006 
	C161.108109,167.093094 164.678757,176.369049 168.170883,185.670181 
	C168.592606,186.793442 168.368683,188.609802 167.698669,189.601181 
	C166.165878,191.869156 164.315033,193.973343 162.341446,195.883850 
	C150.204681,207.632614 137.249298,218.317551 121.111435,224.110306 
	C115.613274,226.083923 109.693733,227.171829 103.871445,227.871506 
	C98.282585,228.543106 91.301834,223.142090 91.268471,217.640152 
	C91.234291,212.003784 91.777405,205.806198 94.119568,200.817551 
	C101.192123,185.753448 112.515167,173.851929 125.115990,163.174408 
	C128.037094,160.699173 131.177002,158.482147 134.216217,156.146301 
	C133.693039,155.532043 133.169846,154.917801 132.646652,154.303558 
	C131.878632,154.264450 130.939941,153.916031 130.367706,154.231750 
	C118.167160,160.963470 106.076866,167.897736 93.816780,174.517899 
	C85.191345,179.175415 80.075935,187.538162 72.826263,193.580719 
	C66.829842,198.578690 64.321030,205.470139 60.985775,212.018387 
	C56.427845,220.967239 58.085308,230.560547 58.201466,239.890121 
	C58.247433,243.581848 60.056915,247.698929 62.207996,250.838043 
	C70.571365,263.043030 83.263184,267.796326 97.276024,268.869659 
	C119.571754,270.577484 140.534378,265.019196 160.656937,255.722961 
	C178.534439,247.463898 195.362244,237.413803 211.012100,225.520538 
	C220.870483,218.028534 229.666519,209.074310 239.832108,202.072540 
	C247.136108,197.041748 248.896896,191.049606 247.983475,183.169876 
	C247.830978,181.854355 247.860123,180.496429 247.980621,179.174072 
	C248.780212,170.399460 251.277664,161.839340 257.353149,155.643250 
	C264.828857,148.019165 273.207031,141.041061 282.080566,135.108124 
	C288.290222,130.956314 295.745514,127.966965 303.063507,126.317390 
	C318.915588,122.744102 330.100433,135.285217 328.811768,148.691452 
	C328.070648,156.401703 325.718414,164.175125 322.820953,171.411407 
	C317.877228,183.758148 308.422943,192.987411 298.212158,200.945847 
	C289.642609,207.625076 279.013184,209.752487 268.125000,210.087204 
	C266.799286,210.127960 265.199341,211.128708 264.259094,212.166885 
	C259.486938,217.436050 255.239914,223.224899 250.153152,228.155090 
	C241.870880,236.182434 233.228577,243.858917 224.456833,251.354172 
	C217.448318,257.342773 210.033951,262.857727 202.770889,268.546143 
	C200.863220,270.040222 198.777771,271.310150 196.894409,272.832031 
	C185.373306,282.141815 173.117401,290.397217 159.462265,296.123322 
	C150.045151,300.072296 139.836578,302.147186 130.456177,306.166840 
	C119.657341,310.794281 108.458504,306.515503 97.687767,308.961121 
	C97.082344,309.098602 96.314072,308.963928 95.734962,308.703674 
	C89.550995,305.924194 83.389915,303.093781 77.101242,300.221954 
	C77.195602,309.182861 82.077003,315.651733 88.938744,320.955597 
	C99.450516,329.080811 111.997032,331.589172 124.689972,332.483032 
	C142.463974,333.734711 159.635330,329.518890 176.469620,324.275085 
	C195.707825,318.282471 214.040222,310.093109 232.094360,301.133362 
	C257.528076,288.511353 281.293121,273.291168 303.940857,256.295990 
	C306.162201,254.629120 307.408539,250.687592 307.705780,247.664078 
	C308.136292,243.285080 306.395386,238.604263 307.229401,234.377487 
	C308.106598,229.931808 310.028351,224.994781 313.102875,221.841400 
	C317.873657,216.948257 323.922119,213.262634 329.581573,209.282135 
	C341.510223,200.892273 353.522003,192.620148 365.536743,184.353592 
	C368.287262,182.461136 371.187927,180.786835 374.019470,179.012115 
	C374.324310,179.461075 374.629120,179.910034 374.933960,180.358994 
	C373.407990,181.796982 371.934753,183.296371 370.345154,184.660217 
	C366.979736,187.547668 363.379639,190.183365 360.190186,193.249359 
	C354.321228,198.891129 348.683868,204.773560 342.940857,210.546570 
	C339.456116,214.049515 335.715240,217.339798 332.601898,221.144867 
	C331.635132,222.326431 332.349304,224.883316 332.293915,226.810577 
	C334.426910,226.839767 337.320618,227.784119 338.567719,226.747513 
	C345.889252,220.661804 352.926208,214.219803 359.866302,207.692886 
	C367.414093,200.594482 374.751495,193.272385 382.005798,186.217834 
	C386.102295,188.522568 384.392822,190.292053 382.532745,191.986542 
	C373.008514,200.662811 363.452179,209.303879 353.939423,217.992676 
	C350.038879,221.555420 345.868896,224.918732 342.541016,228.964600 
	C341.261963,230.519669 340.894379,234.813828 342.025726,235.944321 
	C344.317902,238.234879 347.416473,237.079636 349.876770,234.705124 
	C356.685638,228.133682 363.613220,221.685211 370.490417,215.184494 
	C376.824158,209.197479 383.109711,203.157883 389.545746,197.283051 
	C390.265259,196.626251 391.827515,196.892654 392.998932,196.730927 
	C392.805542,197.828018 393.008453,199.353714 392.357330,199.955811 
	C385.955658,205.875168 379.258331,211.479797 372.949768,217.493561 
	C366.024017,224.095627 359.442200,231.057449 352.661255,237.813034 
	C350.559967,239.906479 349.027771,242.722839 351.678040,244.505157 
	C353.381561,245.650787 357.326447,245.340286 359.140594,244.071854 
	C363.538513,240.996948 367.358124,237.064102 371.266479,233.326065 
	C380.283997,224.701340 389.190491,215.960449 398.215973,207.344177 
	C399.292999,206.315933 400.829041,205.768509 402.152344,204.998230 
	C402.477112,205.416992 402.801910,205.835739 403.126709,206.254501 
	C396.418335,214.320007 389.623169,222.315262 383.023254,230.468552 
	C374.554932,240.929901 366.746857,251.981461 357.655853,261.859863 
	C352.994598,266.924835 346.417084,269.728729 338.450836,268.583862 
	C332.764832,267.766693 326.217346,267.924622 321.027344,270.037537 
	C315.442505,272.311249 310.957092,277.328888 306.056519,281.230408 
	C297.564667,287.991089 289.439087,295.265747 280.570221,301.483765 
	C271.757446,307.662506 262.303192,312.951385 252.976883,318.366394 
	C240.220612,325.772827 227.628998,333.563141 214.399490,340.027985 
	C198.971375,347.567139 183.237488,354.708710 166.249023,358.249481 
	C156.161438,360.352020 146.063431,362.561493 135.862946,363.915558 
	C127.838020,364.980804 119.649071,364.810516 109.946449,365.263031 
	C112.820358,368.815979 114.793633,372.528259 117.841675,374.795807 
	C128.975372,383.078552 141.768692,387.208832 155.593246,387.756714 
	C167.322556,388.221558 179.100098,388.817200 190.633057,385.618774 
	C195.770233,384.194061 200.943954,382.901031 206.957062,381.323700 
	C206.957062,385.062592 206.957062,387.993134 206.387634,391.556091 
	C206.576218,399.395538 206.764801,407.234955 207.018951,415.666016 
	C207.058289,416.060730 207.097641,416.455475 207.021957,417.557098 
	C207.672073,418.769440 208.322189,419.981781 209.053055,421.887634 
	C211.436996,425.915710 215.542267,427.568024 219.541718,426.749969 
	C227.902618,425.039795 235.037155,420.669678 241.091476,414.486786 
	C250.530457,404.847351 260.035553,395.264771 269.754791,385.909729 
	C280.521362,375.546600 291.209290,365.052612 302.594299,355.397186 
	C311.313354,348.002625 320.477936,340.830963 332.201385,338.338440 
	C339.190857,336.852448 345.830963,338.767090 348.663635,345.252075 
	C352.502594,354.040771 355.319855,363.346893 357.795715,372.638794 
	C360.037537,381.052277 369.961487,391.039124 380.697571,387.224030 
	C390.192932,383.849762 397.676239,377.857941 402.078430,369.223053 
	C408.640991,356.350616 414.776154,343.127563 419.560486,329.514954 
	C425.514679,312.573700 430.691772,295.266693 434.767639,277.782684 
	C439.295776,258.358276 442.278595,238.569580 445.773987,218.911011 
	C446.786987,213.213760 447.475128,207.435959 447.917877,201.664825 
	C448.855347,189.444611 449.533112,177.204498 450.878143,164.369461 
z"/>
<path fill="#104D7B" opacity="1.000000" stroke="none" 
	d="
M206.957062,390.923706 
	C206.957062,387.993134 206.957062,385.062592 206.957062,381.323700 
	C200.943954,382.901031 195.770233,384.194061 190.633057,385.618774 
	C179.100098,388.817200 167.322556,388.221558 155.593246,387.756714 
	C141.768692,387.208832 128.975372,383.078552 117.841675,374.795807 
	C114.793633,372.528259 112.820358,368.815979 109.946449,365.263031 
	C119.649071,364.810516 127.838020,364.980804 135.862946,363.915558 
	C146.063431,362.561493 156.161438,360.352020 166.249023,358.249481 
	C183.237488,354.708710 198.971375,347.567139 214.399490,340.027985 
	C227.628998,333.563141 240.220612,325.772827 252.976883,318.366394 
	C262.303192,312.951385 271.757446,307.662506 280.570221,301.483765 
	C289.439087,295.265747 297.564667,287.991089 306.056519,281.230408 
	C310.957092,277.328888 315.442505,272.311249 321.027344,270.037537 
	C326.217346,267.924622 332.764832,267.766693 338.450836,268.583862 
	C346.417084,269.728729 352.994598,266.924835 357.655853,261.859863 
	C366.746857,251.981461 374.554932,240.929901 383.023254,230.468552 
	C389.623169,222.315262 396.418335,214.320007 403.126709,206.254501 
	C402.801910,205.835739 402.477112,205.416992 402.152344,204.998230 
	C400.829041,205.768509 399.292999,206.315933 398.215973,207.344177 
	C389.190491,215.960449 380.283997,224.701340 371.266479,233.326065 
	C367.358124,237.064102 363.538513,240.996948 359.140594,244.071854 
	C357.326447,245.340286 353.381561,245.650787 351.678040,244.505157 
	C349.027771,242.722839 350.559967,239.906479 352.661255,237.813034 
	C359.442200,231.057449 366.024017,224.095627 372.949768,217.493561 
	C379.258331,211.479797 385.955658,205.875168 392.357330,199.955811 
	C393.008453,199.353714 392.805542,197.828018 392.998932,196.730927 
	C391.827515,196.892654 390.265259,196.626251 389.545746,197.283051 
	C383.109711,203.157883 376.824158,209.197479 370.490417,215.184494 
	C363.613220,221.685211 356.685638,228.133682 349.876770,234.705124 
	C347.416473,237.079636 344.317902,238.234879 342.025726,235.944321 
	C340.894379,234.813828 341.261963,230.519669 342.541016,228.964600 
	C345.868896,224.918732 350.038879,221.555420 353.939423,217.992676 
	C363.452179,209.303879 373.008514,200.662811 382.532745,191.986542 
	C384.392822,190.292053 386.102295,188.522568 382.005798,186.217834 
	C374.751495,193.272385 367.414093,200.594482 359.866302,207.692886 
	C352.926208,214.219803 345.889252,220.661804 338.567719,226.747513 
	C337.320618,227.784119 334.426910,226.839767 332.293945,226.810577 
	C332.349304,224.883316 331.635132,222.326431 332.601898,221.144867 
	C335.715240,217.339798 339.456116,214.049515 342.940857,210.546570 
	C348.683868,204.773560 354.321228,198.891129 360.190186,193.249359 
	C363.379639,190.183365 366.979736,187.547668 370.345154,184.660217 
	C371.934753,183.296371 373.407990,181.796982 374.933960,180.358994 
	C374.629120,179.910034 374.324310,179.461075 374.019470,179.012115 
	C371.187927,180.786835 368.287262,182.461136 365.536743,184.353592 
	C353.522003,192.620148 341.510223,200.892273 329.581573,209.282135 
	C323.922119,213.262634 317.873657,216.948257 313.102875,221.841400 
	C310.028351,224.994781 308.106598,229.931808 307.229401,234.377487 
	C306.395386,238.604263 308.136292,243.285080 307.705780,247.664078 
	C307.408539,250.687592 306.162201,254.629120 303.940857,256.295990 
	C281.293121,273.291168 257.528076,288.511353 232.094360,301.133362 
	C214.040222,310.093109 195.707825,318.282471 176.469620,324.275085 
	C159.635330,329.518890 142.463974,333.734711 124.689972,332.483032 
	C111.997032,331.589172 99.450516,329.080811 88.938744,320.955597 
	C82.077003,315.651733 77.195602,309.182861 77.101242,300.221954 
	C83.389915,303.093781 89.550995,305.924194 95.734962,308.703674 
	C96.314072,308.963928 97.082344,309.098602 97.687767,308.961121 
	C108.458504,306.515503 119.657341,310.794281 130.456177,306.166840 
	C139.836578,302.147186 150.045151,300.072296 159.462265,296.123322 
	C173.117401,290.397217 185.373306,282.141815 196.894409,272.832031 
	C198.777771,271.310150 200.863220,270.040222 202.770889,268.546143 
	C210.033951,262.857727 217.448318,257.342773 224.456833,251.354172 
	C233.228577,243.858917 241.870880,236.182434 250.153152,228.155090 
	C255.239914,223.224899 259.486938,217.436050 264.259094,212.166885 
	C265.199341,211.128708 266.799286,210.127960 268.125000,210.087204 
	C279.013184,209.752487 289.642609,207.625076 298.212158,200.945847 
	C308.422943,192.987411 317.877228,183.758148 322.820953,171.411407 
	C325.718414,164.175125 328.070648,156.401703 328.811768,148.691452 
	C330.100433,135.285217 318.915588,122.744102 303.063507,126.317390 
	C295.745514,127.966965 288.290222,130.956314 282.080566,135.108124 
	C273.207031,141.041061 264.828857,148.019165 257.353149,155.643250 
	C251.277664,161.839340 248.780212,170.399460 247.980621,179.174072 
	C247.860123,180.496429 247.830978,181.854355 247.983475,183.169876 
	C248.896896,191.049606 247.136108,197.041748 239.832108,202.072540 
	C229.666519,209.074310 220.870483,218.028534 211.012100,225.520538 
	C195.362244,237.413803 178.534439,247.463898 160.656937,255.722961 
	C140.534378,265.019196 119.571754,270.577484 97.276024,268.869659 
	C83.263184,267.796326 70.571365,263.043030 62.207996,250.838043 
	C60.056915,247.698929 58.247433,243.581848 58.201466,239.890121 
	C58.085308,230.560547 56.427845,220.967239 60.985775,212.018387 
	C64.321030,205.470139 66.829842,198.578690 72.826263,193.580719 
	C80.075935,187.538162 85.191345,179.175415 93.816780,174.517899 
	C106.076866,167.897736 118.167160,160.963470 130.367706,154.231750 
	C130.939941,153.916031 131.878632,154.264450 132.646652,154.303558 
	C133.169846,154.917801 133.693039,155.532043 134.216217,156.146301 
	C131.177002,158.482147 128.037094,160.699173 125.115990,163.174408 
	C112.515167,173.851929 101.192123,185.753448 94.119568,200.817551 
	C91.777405,205.806198 91.234291,212.003784 91.268471,217.640152 
	C91.301834,223.142090 98.282585,228.543106 103.871445,227.871506 
	C109.693733,227.171829 115.613274,226.083923 121.111435,224.110306 
	C137.249298,218.317551 150.204681,207.632614 162.341446,195.883850 
	C164.315033,193.973343 166.165878,191.869156 167.698669,189.601181 
	C168.368683,188.609802 168.592606,186.793442 168.170883,185.670181 
	C164.678757,176.369049 161.108109,167.093094 157.326767,157.906006 
	C152.602966,146.429092 146.694077,135.341736 143.042938,123.545731 
	C138.190674,107.869011 138.042648,91.406540 147.574249,77.467178 
	C153.499649,68.801674 162.528183,61.855991 174.461395,62.041084 
	C182.709869,62.169022 191.044739,62.016895 199.170624,63.180130 
	C206.427780,64.219002 213.458191,66.864891 220.576645,68.844841 
	C235.107544,72.886497 249.505722,77.509254 264.199219,80.826843 
	C274.435913,83.138130 285.075165,84.770630 295.531036,84.751801 
	C311.726898,84.722656 327.630249,81.847633 342.592102,74.918968 
	C354.490173,69.409126 366.915039,64.944176 378.469238,58.814911 
	C387.152740,54.208488 395.963074,51.294128 405.611267,51.074722 
	C418.779877,50.775265 428.346619,57.378414 434.881805,68.268639 
	C442.802643,81.467819 446.860107,95.977974 448.012360,111.330582 
	C448.556854,118.585640 449.363464,125.821014 450.035919,133.995483 
	C450.119476,144.941299 450.218414,154.956909 450.317352,164.972534 
	C449.533112,177.204498 448.855347,189.444611 447.917877,201.664825 
	C447.475128,207.435959 446.786987,213.213760 445.773987,218.911011 
	C442.278595,238.569580 439.295776,258.358276 434.767639,277.782684 
	C430.691772,295.266693 425.514679,312.573700 419.560486,329.514954 
	C414.776154,343.127563 408.640991,356.350616 402.078430,369.223053 
	C397.676239,377.857941 390.192932,383.849762 380.697571,387.224030 
	C369.961487,391.039124 360.037537,381.052277 357.795715,372.638794 
	C355.319855,363.346893 352.502594,354.040771 348.663635,345.252075 
	C345.830963,338.767090 339.190857,336.852448 332.201385,338.338440 
	C320.477936,340.830963 311.313354,348.002625 302.594299,355.397186 
	C291.209290,365.052612 280.521362,375.546600 269.754791,385.909729 
	C260.035553,395.264771 250.530457,404.847351 241.091476,414.486786 
	C235.037155,420.669678 227.902618,425.039795 219.541718,426.749969 
	C215.542267,427.568024 211.436996,425.915710 208.984375,421.187561 
	C208.322784,419.275024 207.729889,418.062622 207.136993,416.850189 
	C207.097641,416.455475 207.058289,416.060730 207.068848,415.022583 
	C207.064835,406.560638 207.010956,398.742188 206.957062,390.923706 
z"/>
<path fill="#A0B6D6" opacity="1.000000" stroke="none" 
	d="
M450.597748,164.670990 
	C450.218414,154.956909 450.119476,144.941299 450.051575,134.456268 
	C450.386017,136.318436 450.926575,138.647705 450.949371,140.982040 
	C451.025574,148.776855 450.916351,156.573517 450.597748,164.670990 
z"/>
<path fill="#244C68" opacity="1.000000" stroke="none" 
	d="
M206.672348,391.239899 
	C207.010956,398.742188 207.064835,406.560638 207.036057,414.726746 
	C206.764801,407.234955 206.576218,399.395538 206.672348,391.239899 
z"/>
<path fill="#244C68" opacity="1.000000" stroke="none" 
	d="
M207.079468,417.203644 
	C207.729889,418.062622 208.322784,419.275024 208.944000,420.840759 
	C208.322189,419.981781 207.672073,418.769440 207.079468,417.203644 
z"/>
</svg>